# xmcd CD database file
#
# Track frame offsets:
#	150
#	52375
#	65625
#	90150
#	104125
#	144975
#
# Disc length: 2530 seconds
#
# Revision: 0
# Processed by: cddbd v1.5.2PL0 Copyright (c) Steve Scherf et al.
# Submitted via: CDex 1.70beta2
#
DISCID=5609e006
DTITLE=Katsuyoshi Kuninaka - Warm Current
DYEAR=1979
DGENRE=Jazz
TTITLE0=Umbrella Dance
TTITLE1=Goodbye Pork Pie Hot
TTITLE2=Bags Groove
TTITLE3=Uganjo
TTITLE4=Ca'purange
TTITLE5=Nurna
EXTD=YEAR: 1979
EXTT0=
EXTT1=
EXTT2=
EXTT3=
EXTT4=
EXTT5=
PLAYORDER=
